<?xml version="1.0" encoding="UTF-8" standalone="no"?>
<!-- Generator: Adobe Illustrator 16.0.0, SVG Export Plug-In . SVG Version: 6.00 Build 0)  -->

<svg
   xmlns:dc="http://purl.org/dc/elements/1.1/"
   xmlns:cc="http://creativecommons.org/ns#"
   xmlns:rdf="http://www.w3.org/1999/02/22-rdf-syntax-ns#"
   xmlns:svg="http://www.w3.org/2000/svg"
   xmlns="http://www.w3.org/2000/svg"
   xmlns:sodipodi="http://sodipodi.sourceforge.net/DTD/sodipodi-0.dtd"
   xmlns:inkscape="http://www.inkscape.org/namespaces/inkscape"
   version="1.1"
   id="Capa_1"
   x="0px"
   y="0px"
   width="106.059px"
   height="106.059px"
   viewBox="0 0 106.059 106.059"
   style="enable-background:new 0 0 106.059 106.059;"
   xml:space="preserve"
   sodipodi:docname="normal-face-in-rounded-square.svg"
   inkscape:version="0.92.4 (5da689c313, 2019-01-14)"><metadata
   id="metadata41"><rdf:RDF><cc:Work
       rdf:about=""><dc:format>image/svg+xml</dc:format><dc:type
         rdf:resource="http://purl.org/dc/dcmitype/StillImage" /><dc:title /></cc:Work></rdf:RDF></metadata><defs
   id="defs39" /><sodipodi:namedview
   pagecolor="#ffffff"
   bordercolor="#666666"
   borderopacity="1"
   objecttolerance="10"
   gridtolerance="10"
   guidetolerance="10"
   inkscape:pageopacity="0"
   inkscape:pageshadow="2"
   inkscape:window-width="1577"
   inkscape:window-height="886"
   id="namedview37"
   showgrid="false"
   inkscape:zoom="8.9007064"
   inkscape:cx="55.319696"
   inkscape:cy="39.389613"
   inkscape:window-x="0"
   inkscape:window-y="0"
   inkscape:window-maximized="0"
   inkscape:current-layer="g4" />
<g
   id="g4">
	<path
   d="M 90.546,15.518 C 69.858,-5.172 36.199,-5.172 15.515,15.513 -5.173,36.198 -5.171,69.858 15.517,90.547 36.199,111.231 69.858,111.231 90.544,90.543 111.23,69.858 111.229,36.2 90.546,15.518 Z m -5.789,69.24 C 67.263,102.252 38.797,102.254 21.302,84.76 3.804,67.263 3.806,38.794 21.302,21.3 38.796,3.807 67.261,3.805 84.759,21.302 102.253,38.796 102.251,67.265 84.757,84.758 Z M 54.163798,68.947313 c -12.467099,-0.399165 -24.54526,0.860676 -23.741227,-2.868897 0.139976,-3.446337 9.098504,-2.351864 23.462004,-2.685377 13.914966,0.688225 25.720347,-0.500563 25.148339,2.930995 -0.527305,3.163381 -8.213901,2.474978 -24.869116,2.623279 z M 33.24,38.671 c 0,-3.424 2.777,-6.201 6.201,-6.201 3.423,0 6.2,2.776 6.2,6.201 0,3.426 -2.777,6.202 -6.2,6.202 -3.424,0 -6.201,-2.776 -6.201,-6.202 z m 28.117,0 c 0,-3.424 2.779,-6.201 6.203,-6.201 3.423,0 6.2,2.776 6.2,6.201 0,3.426 -2.776,6.202 -6.2,6.202 -3.424,0 -6.203,-2.776 -6.203,-6.202 z"
   id="path2"
   inkscape:connector-curvature="0"
   sodipodi:nodetypes="ccccccsccccccscssssssssss" />
</g>
<g
   id="g6">
</g>
<g
   id="g8">
</g>
<g
   id="g10">
</g>
<g
   id="g12">
</g>
<g
   id="g14">
</g>
<g
   id="g16">
</g>
<g
   id="g18">
</g>
<g
   id="g20">
</g>
<g
   id="g22">
</g>
<g
   id="g24">
</g>
<g
   id="g26">
</g>
<g
   id="g28">
</g>
<g
   id="g30">
</g>
<g
   id="g32">
</g>
<g
   id="g34">
</g>
</svg>